<?xml version="1.0" standalone="no"?>
<!DOCTYPE svg PUBLIC "-//W3C//DTD SVG 20010904//EN"
 "http://www.w3.org/TR/2001/REC-SVG-20010904/DTD/svg10.dtd">
<svg version="1.0" xmlns="http://www.w3.org/2000/svg"
 width="300.000000pt" height="190.000000pt" viewBox="0 0 300.000000 190.000000"
 preserveAspectRatio="xMidYMid meet">
<metadata>
Created by potrace 1.10, written by Peter Selinger 2001-2011
</metadata>
<g transform="translate(0.000000,190.000000) scale(0.100000,-0.100000)"
fill="#000000" stroke="none">
<path d="M17 1883 c-4 -3 -7 -426 -7 -940 l0 -933 1490 0 1490 0 -2 938 -3
937 -1481 3 c-814 1 -1484 -1 -1487 -5z m2923 -933 l0 -890 -1440 0 -1440 0 0
890 0 890 1440 0 1440 0 0 -890z"/>
<path d="M875 1659 c-38 -5 -83 -15 -100 -23 -16 -7 -48 -19 -70 -26 -22 -7
-45 -17 -51 -21 -21 -17 -23 -102 -15 -522 7 -361 10 -421 24 -434 14 -15 33
-15 209 1 106 9 219 23 250 31 113 28 195 85 239 164 11 20 31 51 44 70 42 57
57 125 62 272 6 146 -3 210 -37 283 -79 168 -275 240 -555 205z m255 -39 c140
-23 242 -104 279 -225 26 -83 29 -298 7 -384 -29 -108 -97 -172 -229 -217 -74
-25 -382 -73 -394 -61 -9 9 -4 860 5 869 22 22 232 33 332 18z m-360 -30 c0
-5 -7 -10 -16 -10 -8 0 -12 -5 -9 -10 4 -6 5 -86 3 -178 -1 -92 -4 -223 -5
-292 -1 -69 -5 -162 -8 -207 -6 -72 -4 -88 14 -127 33 -67 39 -70 139 -63 83
6 259 39 310 58 33 13 40 11 18 -6 -10 -8 -63 -22 -117 -31 -55 -10 -94 -21
-88 -24 18 -12 -11 -18 -118 -25 -71 -5 -106 -4 -122 5 -19 10 -26 9 -43 -7
-46 -41 -48 -16 -59 772 -1 78 13 125 36 125 9 0 23 7 31 15 18 17 34 20 34 5z
m-18 -732 c2 -38 0 -68 -4 -68 -4 0 -7 37 -7 83 1 92 6 86 11 -15z"/>
<path d="M949 1443 c-15 -40 -18 -488 -2 -504 14 -14 135 5 208 33 98 38 125
84 125 210 0 123 -20 196 -64 234 -45 39 -96 54 -185 54 -69 0 -72 -1 -82 -27z
m220 -39 c38 -23 65 -76 56 -112 l-7 -27 -19 25 c-59 75 -91 96 -181 115 -31
6 -37 22 -10 27 34 7 130 -10 161 -28z m-83 -53 c52 -24 81 -65 95 -135 13
-61 4 -175 -14 -201 -7 -9 -30 -18 -51 -21 -21 -2 -59 -9 -84 -15 -35 -8 -47
-7 -54 3 -9 15 -11 311 -2 357 6 27 11 31 38 31 17 0 49 -9 72 -19z m157 -84
c-4 -7 -6 -43 -5 -82 2 -45 -1 -66 -7 -60 -12 12 -16 123 -6 147 4 10 11 15
16 12 5 -3 6 -11 2 -17z"/>
<path d="M714 1184 c-4 -14 -2 -35 4 -47 9 -19 11 -15 11 26 1 52 -5 61 -15
21z"/>
<path d="M1920 1633 l-55 -38 -5 -322 c-3 -177 -8 -324 -12 -328 -14 -14 -27
7 -39 61 l-13 56 -95 -5 c-53 -3 -117 -13 -143 -22 l-48 -17 0 -69 c0 -129 59
-227 172 -286 44 -22 66 -27 128 -27 96 0 146 22 222 98 78 78 115 157 129
271 11 90 19 639 9 648 -3 3 -48 8 -100 11 l-95 7 -55 -38z m213 -279 c-2
-328 -11 -415 -53 -493 -40 -75 -97 -130 -145 -141 -46 -10 -149 3 -180 24
-61 40 -105 136 -105 226 0 47 0 47 38 54 71 11 79 9 86 -26 9 -50 42 -96 80
-114 32 -16 36 -15 72 2 73 37 75 46 72 417 l-3 328 70 -4 70 -3 -2 -270z
m-206 189 c29 62 33 27 33 -265 0 -289 -4 -343 -21 -332 -5 3 -9 0 -9 -5 0
-15 -27 -14 -33 2 -3 6 -6 2 -6 -10 -1 -13 -5 -23 -11 -23 -13 0 -13 6 1 33 7
11 11 47 10 78 -1 32 3 60 9 64 6 4 8 -11 4 -42 l-5 -48 15 40 c13 34 13 42 1
55 -11 12 -14 63 -15 245 -2 246 -1 269 9 215 l6 -34 12 27z m-344 -572 c17
-7 28 -22 36 -53 7 -25 11 -51 9 -59 -1 -8 12 -35 30 -61 37 -54 39 -64 13
-71 -13 -3 -30 7 -54 32 -38 39 -63 81 -49 81 5 0 14 -10 20 -22 l11 -23 0 22
c1 13 -9 29 -24 39 -22 14 -25 24 -25 70 0 30 2 54 4 54 3 0 16 -4 29 -9z
m209 -293 c-13 -12 -60 4 -65 22 -4 16 -2 17 34 1 21 -9 35 -19 31 -23z"/>
<path d="M1597 913 c-12 -11 -8 -40 8 -53 13 -11 14 -8 9 21 -8 40 -9 41 -17
32z"/>
<path d="M2452 813 c-31 -96 -62 -216 -62 -240 0 -8 12 -13 28 -13 27 0 29 3
76 163 27 89 50 168 53 175 3 8 -6 12 -30 12 l-34 0 -31 -97z m23 -100 c-5
-10 -8 -21 -7 -25 1 -4 -7 -12 -18 -18 -21 -11 -29 3 -10 15 6 4 8 11 5 16 -4
5 1 9 9 9 9 0 16 8 16 17 0 9 3 14 6 10 4 -3 3 -14 -1 -24z"/>
<path d="M2268 798 c-48 -25 -58 -36 -58 -57 0 -21 11 -33 56 -60 30 -18 56
-31 58 -29 1 1 10 16 19 31 l18 28 -38 15 -38 16 38 15 c37 15 43 26 31 57 -9
22 -21 20 -86 -16z m0 -36 c-10 -2 -18 -7 -18 -12 0 -5 8 -10 18 -12 11 -2 13
-6 6 -10 -6 -4 -20 -1 -30 7 -19 15 -19 15 0 30 10 8 24 11 30 7 7 -4 5 -8 -6
-10z"/>
<path d="M2562 805 c-15 -33 -11 -41 36 -56 l37 -12 -43 -18 c-34 -15 -42 -23
-42 -45 0 -23 3 -25 27 -19 15 3 47 16 72 28 40 19 46 26 49 57 3 37 3 36
-118 88 -4 1 -12 -9 -18 -23z"/>
<path d="M2504 522 c-20 -3 -21 -8 -19 -99 1 -91 3 -96 23 -100 18 -2 22 2 22
25 l1 27 20 -27 c20 -27 48 -36 63 -21 3 4 -7 21 -24 38 l-30 31 29 28 c32 31
32 31 55 -41 18 -54 15 -76 -8 -67 -18 7 -30 -27 -14 -38 40 -25 76 4 106 83
37 102 37 99 3 99 -26 0 -31 -4 -31 -23 0 -13 -9 -32 -20 -42 -11 -10 -20 -13
-20 -7 0 6 5 12 12 14 7 3 9 14 4 31 -6 25 -10 27 -60 27 -38 0 -58 -5 -67
-17 -12 -14 -15 -11 -19 33 -4 43 -8 49 -26 46z m15 -119 c1 -26 -1 -45 -4
-41 -10 9 -15 88 -6 88 4 0 8 -21 10 -47z"/>
<path d="M730 485 c-18 -19 -23 -36 -23 -72 0 -61 33 -93 98 -93 46 0 59 8 49
33 -4 12 -15 14 -41 10 -28 -5 -39 -2 -49 12 -34 47 -3 101 51 91 25 -5 34 -3
39 10 9 23 -10 34 -60 34 -30 0 -46 -6 -64 -25z"/>
<path d="M880 415 c0 -95 0 -95 25 -95 22 0 25 4 25 35 0 31 3 35 25 35 22 0
25 -4 25 -34 0 -38 11 -50 38 -42 15 5 17 18 14 101 -3 92 -4 95 -27 95 -22 0
-23 -3 -18 -35 5 -34 5 -35 -26 -35 -29 0 -31 2 -31 35 0 31 -3 35 -25 35 -25
0 -25 0 -25 -95z m37 53 c1 -12 -3 -28 -9 -35 -10 -13 -1 -18 27 -14 6 1 3 -4
-5 -11 -9 -7 -14 -20 -12 -30 2 -9 -1 -19 -7 -22 -5 -3 -7 3 -4 14 3 11 0 20
-6 20 -11 0 -10 27 2 47 4 6 3 15 -3 18 -8 5 -7 11 1 21 15 18 14 18 16 -8z
m95 -46 c-7 -2 -12 -8 -12 -13 0 -6 5 -7 10 -4 6 3 10 -1 10 -9 0 -20 -16 -21
-23 -2 -3 8 -16 16 -29 19 -20 4 -20 4 5 6 15 0 27 6 27 12 0 5 5 7 12 3 9 -6
9 -9 0 -12z"/>
<path d="M1063 443 c4 -38 7 -80 7 -95 0 -28 1 -28 66 -28 62 0 65 1 62 23 -3
19 -8 22 -45 19 -33 -3 -43 0 -43 12 0 10 12 16 38 18 29 2 37 7 37 23 0 16
-8 21 -37 23 -51 4 -49 22 2 22 36 0 40 3 40 25 0 24 -2 25 -66 25 l-67 0 6
-67z m87 -19 c0 -2 -14 -10 -32 -18 -17 -9 -29 -13 -25 -10 4 4 2 13 -5 21 -9
11 -5 13 25 11 21 -1 37 -3 37 -4z"/>
<path d="M1226 456 c-3 -28 -6 -70 -6 -93 0 -35 3 -43 19 -43 11 0 21 9 25 23
9 34 7 44 -10 61 -14 14 -13 16 10 14 13 -1 22 -6 20 -10 -9 -14 16 -48 35
-48 18 0 45 45 36 60 -3 5 -1 12 5 15 6 4 9 3 8 -2 -1 -4 1 -32 5 -60 7 -45
11 -53 29 -53 19 0 20 4 14 46 -3 26 -6 66 -6 90 0 39 -3 44 -23 44 -18 0 -29
-11 -46 -47 l-24 -48 -19 46 c-14 33 -27 48 -43 51 -21 4 -23 0 -29 -46z"/>
<path d="M1472 428 c-18 -46 -35 -89 -38 -95 -4 -9 3 -13 24 -13 21 0 31 6 35
20 4 15 14 20 37 20 23 0 33 -5 37 -20 4 -14 14 -20 35 -20 27 0 28 2 16 23
-6 12 -23 54 -38 92 -21 59 -30 70 -50 73 -23 2 -28 -5 -58 -80z m78 -20 c0
-17 -38 -7 -43 12 -3 11 -1 18 4 14 5 -3 9 1 9 8 1 14 30 -20 30 -34z"/>
<path d="M1740 465 c0 -25 -4 -44 -9 -41 -5 4 -12 0 -15 -6 -3 -7 -4 -5 -3 4
3 28 -35 78 -61 78 -22 0 -23 -2 -20 -87 3 -84 4 -88 27 -91 23 -4 24 -2 19
47 -3 28 -2 51 1 51 3 -1 22 -23 41 -50 54 -77 66 -69 64 43 -2 85 -4 92 -23
95 -19 3 -21 -2 -21 -43z"/>
<path d="M1935 469 c7 -41 -2 -59 -30 -59 -5 0 -4 4 4 9 11 7 8 16 -14 45 -15
20 -36 36 -46 36 -17 0 -19 -9 -19 -90 0 -88 1 -90 24 -90 22 0 23 3 19 53
l-4 52 28 -33 c24 -27 31 -31 43 -20 12 11 12 11 1 -4 -11 -15 -11 -21 -1 -33
7 -8 19 -15 26 -15 11 0 14 21 14 95 l0 95 -26 0 c-25 0 -25 -2 -19 -41z"/>
<path d="M2135 457 c9 -67 -4 -96 -38 -90 -24 5 -43 -18 -31 -38 8 -14 78 -11
100 5 16 12 19 27 19 93 l0 78 -28 3 -29 3 7 -54z"/>
<path d="M350 410 l0 -90 45 0 c51 0 99 20 109 45 14 37 6 86 -19 110 -20 21
-34 25 -80 25 l-55 0 0 -90z m98 38 c19 -19 14 -55 -10 -72 -34 -24 -38 -20
-38 34 0 41 3 50 18 50 10 0 23 -5 30 -12z"/>
<path d="M524 478 c3 -13 6 -28 6 -35 0 -7 7 -10 18 -7 16 5 16 5 0 -9 -44
-36 -6 -107 57 -107 57 0 75 27 75 110 0 68 -1 70 -25 70 -24 0 -25 -2 -25
-64 0 -67 -7 -80 -34 -70 -12 5 -16 21 -16 70 l0 64 -31 0 c-28 0 -31 -3 -25
-22z"/>
<path d="M2220 453 c1 -18 20 -38 28 -28 11 16 41 15 35 -1 -3 -8 -15 -14 -27
-14 -28 0 -46 -18 -46 -47 0 -28 27 -43 79 -43 l41 0 0 58 c0 32 -5 63 -12 70
-13 13 -98 17 -98 5z m97 -81 c-1 -14 -8 -17 -34 -14 -18 2 -33 9 -33 14 0 5
13 7 30 3 19 -4 30 -3 30 4 0 6 2 11 4 11 3 0 4 -8 3 -18z"/>
<path d="M2366 438 c-22 -30 -20 -81 2 -101 10 -10 35 -17 55 -17 30 0 37 4
37 20 0 16 -7 20 -31 20 -27 0 -30 3 -27 27 2 18 10 29 23 32 19 3 35 18 35
34 0 4 -18 7 -39 7 -30 0 -44 -6 -55 -22z"/>
</g>
</svg>
